<svg xmlns="http://www.w3.org/2000/svg" role="img" aria-label="Liminal" viewBox="0 0 273 86" fill="none"><g clip-path="url(#lockup_clip0_2113_9912)"><path d="M133.176 31.2566C135.068 31.2566 136.602 29.696 136.602 27.7709C136.602 25.8458 135.068 24.2852 133.176 24.2852C131.284 24.2852 129.75 25.8458 129.75 27.7709C129.75 29.696 131.284 31.2566 133.176 31.2566Z" fill="#FFFFFF"/><path d="M189.301 31.2566C191.193 31.2566 192.727 29.696 192.727 27.7709C192.727 25.8458 191.193 24.2852 189.301 24.2852C187.409 24.2852 185.875 25.8458 185.875 27.7709C185.875 29.696 187.409 31.2566 189.301 31.2566Z" fill="#FFFFFF"/><path d="M109.401 25.6836V54.1199H126.163V60.564H101.859V25.6836H109.424H109.401Z" fill="#FFFFFF"/><path d="M136.696 35.3164V60.5651H129.867V35.3164H136.696Z" fill="#FFFFFF"/><path d="M148.744 35.3169V38.7338H148.836C149.732 37.4267 150.813 36.4176 152.078 35.7067C153.342 34.9958 154.791 34.6289 156.423 34.6289C158.056 34.6289 159.435 34.95 160.723 35.5462C162.034 36.1654 162.999 37.2661 163.689 38.8256C164.425 37.7248 165.437 36.7387 166.701 35.8902C167.966 35.0417 169.46 34.6289 171.208 34.6289C172.519 34.6289 173.737 34.7894 174.864 35.1105C175.99 35.4315 176.956 35.959 177.761 36.6699C178.566 37.3808 179.187 38.321 179.646 39.4677C180.106 40.6143 180.313 42.0132 180.313 43.6414V60.5427H173.484V46.2328C173.484 45.3843 173.461 44.5816 173.392 43.8478C173.323 43.091 173.162 42.4489 172.863 41.8985C172.565 41.3481 172.151 40.9124 171.599 40.5684C171.047 40.2474 170.265 40.0868 169.322 40.0868C168.38 40.0868 167.575 40.2703 166.977 40.6372C166.379 41.0042 165.92 41.5087 165.575 42.1049C165.23 42.7012 165.023 43.3891 164.908 44.1459C164.793 44.9027 164.747 45.6824 164.747 46.4621V60.5197H157.918V46.3474C157.918 45.5907 157.918 44.8568 157.872 44.123C157.849 43.3891 157.711 42.7241 157.458 42.1049C157.205 41.4857 156.814 40.9812 156.262 40.6143C155.711 40.2474 154.883 40.0639 153.779 40.0639C153.457 40.0639 153.043 40.1327 152.515 40.2932C151.986 40.4308 151.48 40.706 150.974 41.1188C150.468 41.5316 150.054 42.1049 149.709 42.8846C149.364 43.6414 149.181 44.6504 149.181 45.8888V60.5427H142.352V35.2939H148.813L148.744 35.3169Z" fill="#FFFFFF"/><path d="M192.727 35.3164V60.5651H185.898V35.3164H192.727Z" fill="#FFFFFF"/><path d="M204.617 35.3164V38.8251H204.755C205.629 37.3574 206.755 36.3025 208.135 35.6145C209.514 34.9495 210.917 34.6055 212.366 34.6055C214.205 34.6055 215.7 34.8577 216.872 35.3622C218.045 35.8668 218.965 36.5777 219.631 37.472C220.298 38.3664 220.781 39.4672 221.057 40.7514C221.333 42.0356 221.471 43.4574 221.471 45.0168V60.5422H214.642V46.2781C214.642 44.1913 214.32 42.6319 213.676 41.6228C213.032 40.5909 211.906 40.0863 210.25 40.0863C208.388 40.0863 207.031 40.6367 206.203 41.7604C205.376 42.8841 204.962 44.7416 204.962 47.3101V60.5422H198.133V35.2934H204.64L204.617 35.3164Z" fill="#FFFFFF"/><path d="M226.391 43.091C226.483 41.4628 226.897 40.1098 227.587 39.032C228.3 37.9541 229.196 37.1056 230.277 36.4406C231.358 35.7985 232.599 35.3169 233.956 35.0417C235.312 34.7665 236.692 34.6289 238.072 34.6289C239.313 34.6289 240.601 34.7206 241.866 34.9041C243.153 35.0876 244.326 35.4315 245.383 35.959C246.441 36.4864 247.315 37.1973 247.982 38.1376C248.648 39.0778 248.993 40.2932 248.993 41.8297V54.9701C248.993 56.1167 249.062 57.1945 249.177 58.2494C249.315 59.2814 249.522 60.084 249.844 60.5885H242.923C242.785 60.1987 242.693 59.8088 242.601 59.396C242.509 58.9833 242.463 58.5705 242.44 58.1577C241.36 59.3043 240.072 60.107 238.6 60.5427C237.129 61.0013 235.611 61.2307 234.071 61.2307C232.875 61.2307 231.772 61.0931 230.76 60.7949C229.725 60.4968 228.828 60.0382 228.07 59.419C227.311 58.7998 226.69 58.0201 226.253 57.0799C225.816 56.1396 225.609 55.0159 225.609 53.7088C225.609 52.287 225.862 51.0945 226.345 50.1772C226.851 49.2599 227.495 48.5031 228.277 47.9527C229.058 47.4023 229.955 46.9895 230.967 46.7144C231.978 46.4392 232.99 46.2098 234.025 46.0493C235.06 45.8888 236.071 45.7512 237.06 45.6595C238.049 45.5677 238.945 45.4072 239.704 45.2237C240.486 45.0173 241.084 44.7422 241.544 44.3752C242.003 44.0083 242.21 43.4579 242.164 42.747C242.164 41.9902 242.049 41.394 241.797 40.9583C241.567 40.5226 241.245 40.1786 240.831 39.9263C240.44 39.6741 239.957 39.5135 239.428 39.4447C238.899 39.353 238.325 39.3301 237.727 39.3301C236.37 39.3301 235.312 39.6282 234.554 40.2015C233.772 40.7978 233.335 41.7609 233.197 43.1369H226.368L226.391 43.091ZM242.164 48.205C241.865 48.4572 241.521 48.6636 241.084 48.8242C240.647 48.9617 240.187 49.0993 239.681 49.1911C239.175 49.2828 238.669 49.3745 238.118 49.4433C237.566 49.5121 237.037 49.5809 236.485 49.6956C235.979 49.7873 235.473 49.9249 234.968 50.0854C234.462 50.246 234.048 50.4753 233.657 50.7505C233.289 51.0257 232.99 51.3697 232.76 51.8054C232.53 52.2182 232.415 52.7685 232.415 53.4107C232.415 54.0528 232.53 54.5573 232.76 54.9701C232.99 55.3829 233.289 55.7268 233.68 55.9791C234.071 56.2314 234.508 56.3919 235.037 56.4836C235.542 56.5753 236.071 56.6212 236.623 56.6212C237.98 56.6212 239.014 56.3919 239.75 55.9332C240.486 55.4746 241.038 54.9242 241.383 54.305C241.728 53.6629 241.957 53.0208 242.026 52.3787C242.095 51.7366 242.141 51.2091 242.141 50.8193V48.2279L242.164 48.205Z" fill="#FFFFFF"/><path d="M261.337 25.6836V60.564H254.508V25.6836H261.337Z" fill="#FFFFFF"/><path d="M265.086 57.5606H266.328V60.5647H267.017V57.5606H268.259V56.9414H265.086V57.5606Z" fill="#FFFFFF"/><path d="M271.797 56.9414L270.946 59.785L270.026 56.9414H268.969V60.5647H269.636V57.6982L270.555 60.5647H271.314L272.211 57.6982V60.5647H272.878V56.9414H271.797Z" fill="#FFFFFF"/><path d="M31.9136 42.2894C32.3505 42.2206 32.7874 42.1976 33.2012 42.1976C37.202 42.1976 41.1568 44.7431 43.0193 48.4812C42.3295 43.1379 38.6046 38.666 33.5001 37.3359C32.6724 39.0788 32.1435 40.707 31.8906 42.2894H31.9136Z" fill="#FFFFFF"/><path d="M42.0774 0C18.8314 0 0 19.1257 0 42.7004C0 66.275 18.8314 85.4008 42.0774 85.4008C65.3234 85.4008 84.1548 66.275 84.1548 42.7004C84.1548 19.1257 65.3234 0 42.0774 0ZM32.9261 60.863C31.1557 60.863 29.7071 59.3953 29.7071 57.6065C29.7071 56.3682 30.3969 55.2904 31.4316 54.74C31.8914 54.4877 32.3743 54.3501 32.9261 54.3501C34.6966 54.3501 36.1452 55.8178 36.1452 57.6065C36.1452 59.3953 34.6966 60.863 32.9261 60.863ZM69.8761 49.8095C68.7724 53.4558 66.657 56.781 63.8749 59.1889C63.6909 59.3494 63.461 59.4182 63.254 59.4182C63.0011 59.4182 62.7482 59.3036 62.5642 59.1201C62.2194 58.7532 62.1964 58.1799 62.5183 57.79C65.7833 54.1208 67.5078 49.1215 67.2319 44.0993C66.9559 39.2146 64.8866 34.7657 61.4146 31.624C57.6897 28.23 52.9761 26.6247 48.1246 27.0833C43.457 27.5191 39.0653 29.8352 36.0072 33.4815C43.1351 36.2105 47.5727 43.6865 46.3771 51.1166C45.8942 54.1437 44.5377 56.9874 42.5143 59.1201C42.2843 59.3494 42.0084 59.4411 41.6635 59.3265C41.5945 59.3265 41.5486 59.2806 41.4796 59.2577C41.3186 59.1889 41.1807 59.0972 41.0887 58.9825C40.8358 58.7073 40.7668 58.4321 40.8588 58.134C41.7785 54.9005 41.0657 51.7129 38.9273 49.3967C37.0189 47.3557 34.2827 46.3925 31.7075 46.8053C31.7765 48.4106 32.0064 49.8324 32.3743 51.1625C32.4433 51.4148 32.4203 51.667 32.2823 51.9193C32.1444 52.1486 31.9374 52.3091 31.7075 52.4009C31.2476 52.5385 30.7648 52.3091 30.5808 51.8734C30.006 50.658 29.5691 49.282 29.2472 47.6768C28.1896 48.2501 27.2238 49.0756 26.4191 50.1305C24.8326 52.3321 24.3267 55.3362 25.1315 58.1569C25.2694 58.6156 25.0625 59.0972 24.6026 59.3036C24.1658 59.5099 23.6369 59.3723 23.384 58.9596C21.6825 56.3223 21.2916 53.2035 22.2573 50.1764C23.292 47.0117 25.7063 44.3974 28.7414 43.1132C28.7414 41.0034 29.1093 38.8936 29.7991 36.8297C25.3614 37.0131 21.0847 39.765 18.9923 43.7782C16.67 48.0895 16.9459 53.6392 19.6821 57.9047C19.958 58.3175 19.866 58.8678 19.4752 59.2118C19.0613 59.5329 18.4865 59.487 18.1646 59.0972C13.9568 54.396 12.9451 48.1125 15.4744 42.2647C18.1186 36.1646 23.8209 32.3807 30.3509 32.3578C30.8338 32.3578 31.2476 32.4266 31.6385 32.4725H31.8455C33.363 30.0187 35.3404 27.886 37.5937 26.3036C45.1125 21.0979 54.7236 21.2355 62.0584 26.6476C69.4162 32.0597 72.4283 40.9575 69.8991 49.8324L69.8761 49.8095Z" fill="#FFFFFF"/></g><defs><clipPath id="lockup_clip0_2113_9912"><rect width="272.882" height="85.4008" fill="#FFFFFF"/></clipPath></defs></svg>
